<svg xmlns="http://www.w3.org/2000/svg" width="246.058" height="203.86" xml:space="preserve"><g fill="#1E1E1C"><path d="M47.908 157.033v-1.336h11.809v1.336h-5.16v14.95H53.07v-14.95zM88.457 171.984h-4.772v-16.286h5.058c1.553 0 2.883.323 3.988.97 1.106.646 1.951 1.575 2.541 2.784.588 1.208.882 2.657.882 4.348 0 1.708-.301 3.172-.903 4.395-.602 1.223-1.475 2.158-2.623 2.81-1.148.652-2.538.979-4.171.979m-3.285-1.337h3.197c1.4 0 2.571-.274 3.515-.826a5.184 5.184 0 0 0 2.123-2.362c.472-1.024.707-2.243.707-3.659-.004-1.404-.236-2.612-.694-3.626-.459-1.011-1.138-1.788-2.036-2.33-.899-.54-2.008-.811-3.328-.811h-3.484v13.614zM106.915 171.984v-16.286h9.446v1.335h-7.96v6.132h7.459v1.336h-7.459v6.145h8.12v1.338zM136.211 159.77c-.091-.907-.491-1.627-1.201-2.163-.711-.535-1.604-.804-2.68-.804-.758 0-1.425.131-2.001.391-.575.259-1.025.618-1.352 1.077-.327.458-.49.979-.49 1.562 0 .429.095.806.279 1.129.187.324.437.602.752.832s.664.427 1.049.592a9.59 9.59 0 0 0 1.166.413l1.717.493c.52.145 1.04.327 1.56.549.519.224.994.503 1.428.839a3.91 3.91 0 0 1 1.041 1.234c.263.484.395 1.066.395 1.745 0 .869-.226 1.65-.676 2.344-.452.695-1.1 1.246-1.941 1.651s-1.854.608-3.03.608c-1.106 0-2.069-.184-2.886-.553-.817-.368-1.458-.879-1.925-1.53-.466-.652-.729-1.407-.787-2.267h1.525c.055.641.267 1.184.638 1.63.371.445.854.783 1.446 1.013.595.232 1.259.348 1.988.348.812 0 1.533-.138 2.167-.41.634-.273 1.132-.654 1.496-1.146.363-.49.544-1.061.544-1.714 0-.552-.142-1.013-.43-1.387-.286-.374-.685-.688-1.197-.943a10.868 10.868 0 0 0-1.775-.676l-1.949-.572c-1.278-.382-2.27-.908-2.975-1.582s-1.057-1.531-1.057-2.576c0-.875.234-1.646.703-2.312.469-.665 1.105-1.183 1.909-1.557.802-.374 1.705-.562 2.707-.562 1.013 0 1.908.188 2.688.559.78.371 1.398.881 1.857 1.529.459.65.703 1.389.734 2.216h-1.437zM148.625 155.698h1.486v16.286h-1.486zM172.87 160.787a5.923 5.923 0 0 0-.65-1.523 5.066 5.066 0 0 0-1.062-1.248 4.774 4.774 0 0 0-1.456-.838c-.548-.203-1.161-.303-1.833-.303-1.06 0-2.01.274-2.848.827-.837.551-1.498 1.347-1.984 2.385-.483 1.04-.727 2.291-.727 3.754 0 1.458.244 2.706.731 3.745.488 1.04 1.157 1.835 2.009 2.389.851.555 1.824.833 2.923.833 1.001 0 1.887-.225 2.654-.669.77-.445 1.368-1.081 1.803-1.909.431-.828.642-1.81.632-2.95l.476.151h-5.216v-1.336h6.188v1.336c0 1.388-.282 2.589-.845 3.603-.561 1.013-1.332 1.794-2.313 2.346s-2.106.827-3.378.827c-1.421 0-2.665-.345-3.73-1.029-1.064-.688-1.894-1.658-2.485-2.911s-.888-2.729-.888-4.425c0-1.278.171-2.432.511-3.459.34-1.029.819-1.909 1.443-2.64a6.354 6.354 0 0 1 2.213-1.683c.855-.389 1.798-.585 2.832-.585.891 0 1.706.14 2.445.422a6.434 6.434 0 0 1 3.347 2.85c.364.64.609 1.318.736 2.04h-1.528zM198.056 155.698v16.285h-1.448l-9.622-13.638h-.127v13.638h-1.487v-16.285h1.44l9.653 13.653h.127v-13.653zM1.559 203.582H0l5.925-16.286h1.59l5.924 16.286h-1.558l-5.106-14.354h-.111l-5.105 14.354zm1.12-6.243h8.08v1.337h-8.08v-1.337zM23.395 203.583v-16.286h5.257c1.155 0 2.121.208 2.898.624.777.417 1.363.991 1.758 1.726.394.734.593 1.575.593 2.524 0 .95-.199 1.788-.593 2.513-.395.728-.98 1.294-1.753 1.701-.774.409-1.733.613-2.879.613H24.2v-1.359h4.437c.847 0 1.554-.141 2.119-.422s.986-.681 1.263-1.201c.279-.519.419-1.135.419-1.845s-.142-1.332-.422-1.864a2.89 2.89 0 0 0-1.269-1.236c-.564-.292-1.276-.438-2.135-.438h-3.729v14.951h-1.488zm7.182-7.348 4.008 7.348h-1.718l-3.968-7.348h1.678zM57.447 192.387h-1.496a4.8 4.8 0 0 0-1.685-2.791 4.918 4.918 0 0 0-1.48-.827 5.304 5.304 0 0 0-1.789-.295 5.153 5.153 0 0 0-2.811.803c-.846.536-1.521 1.322-2.028 2.359-.505 1.034-.758 2.304-.758 3.805 0 1.509.253 2.783.758 3.817.507 1.032 1.182 1.815 2.028 2.349.846.533 1.783.8 2.811.8a5.28 5.28 0 0 0 1.789-.295 4.996 4.996 0 0 0 1.48-.823 4.744 4.744 0 0 0 1.084-1.245 4.76 4.76 0 0 0 .601-1.551h1.496a6.566 6.566 0 0 1-.744 2.088 6.268 6.268 0 0 1-1.384 1.69 6.314 6.314 0 0 1-1.928 1.129 6.823 6.823 0 0 1-2.394.406c-1.367 0-2.581-.345-3.642-1.029-1.06-.688-1.892-1.657-2.492-2.908-.603-1.251-.903-2.726-.903-4.428 0-1.703.3-3.179.903-4.43.6-1.251 1.432-2.221 2.492-2.906 1.061-.688 2.275-1.03 3.642-1.03.869 0 1.668.134 2.394.401a6.14 6.14 0 0 1 1.928 1.13 6.353 6.353 0 0 1 1.384 1.688c.363.643.611 1.34.744 2.093M68.111 203.583v-16.286h1.487v7.468h9.24v-7.468h1.487v16.286h-1.487V196.1h-9.24v7.483zM91.817 187.296h1.487v16.286h-1.487zM103.809 188.633v-1.336h11.809v1.336h-5.162v14.949h-1.487v-14.949zM126.123 203.583v-16.286h9.447v1.336h-7.96v6.132h7.459v1.335h-7.459v6.146h8.118v1.337zM159.33 192.387h-1.494a4.696 4.696 0 0 0-.601-1.548 4.826 4.826 0 0 0-1.086-1.243 4.877 4.877 0 0 0-1.479-.827 5.302 5.302 0 0 0-1.788-.295c-1.03 0-1.968.268-2.812.803-.846.536-1.521 1.322-2.029 2.359-.505 1.034-.759 2.304-.759 3.805 0 1.509.254 2.783.759 3.817.508 1.032 1.184 1.815 2.029 2.349.844.533 1.781.8 2.812.8.641 0 1.236-.098 1.788-.295a4.953 4.953 0 0 0 1.479-.823 4.77 4.77 0 0 0 1.086-1.245 4.76 4.76 0 0 0 .601-1.551h1.494a6.494 6.494 0 0 1-.744 2.088 6.228 6.228 0 0 1-1.383 1.69 6.319 6.319 0 0 1-1.929 1.129 6.812 6.812 0 0 1-2.392.406c-1.369 0-2.583-.345-3.644-1.029-1.059-.688-1.891-1.657-2.493-2.908-.601-1.251-.902-2.726-.902-4.428 0-1.703.302-3.179.902-4.43.603-1.251 1.435-2.221 2.493-2.906 1.061-.688 2.274-1.03 3.644-1.03.868 0 1.666.134 2.392.401s1.37.644 1.929 1.13a6.33 6.33 0 0 1 1.383 1.688c.364.643.613 1.34.744 2.093M169.01 188.633v-1.336h11.808v1.336h-5.16v14.949h-1.486v-14.949zM202.178 187.297h1.487v10.781c0 1.11-.26 2.101-.779 2.973a5.538 5.538 0 0 1-2.167 2.059c-.925.5-2 .751-3.225.751-1.22 0-2.293-.252-3.221-.755s-1.65-1.191-2.17-2.06c-.521-.869-.779-1.857-.779-2.968v-10.781h1.487v10.68c0 .863.192 1.634.579 2.31a4.157 4.157 0 0 0 1.636 1.595c.701.387 1.523.579 2.468.579.945 0 1.769-.192 2.474-.579a4.135 4.135 0 0 0 1.635-1.595c.384-.676.575-1.446.575-2.31v-10.68zM215.156 203.583v-16.286h5.257c1.155 0 2.121.208 2.898.624.775.417 1.362.991 1.757 1.726s.593 1.575.593 2.524c0 .95-.198 1.788-.593 2.513-.395.728-.979 1.294-1.753 1.701-.774.409-1.734.613-2.879.613h-4.478v-1.359h4.438c.848 0 1.554-.141 2.118-.422s.986-.681 1.265-1.201c.279-.519.417-1.135.417-1.845s-.14-1.332-.422-1.864a2.88 2.88 0 0 0-1.267-1.236c-.565-.292-1.276-.438-2.136-.438h-3.729v14.951h-1.486zm7.18-7.348 4.009 7.348h-1.717l-3.97-7.348h1.678zM236.452 203.583v-16.286h9.447v1.336h-7.96v6.132h7.459v1.335h-7.459v6.146h8.119v1.337z"/></g><path fill="#1D1D1B" d="M122.874 0C73.717 0 33.726 39.992 33.726 89.148c0 15.012 3.802 29.854 10.994 42.921l.107.195h24.547V55.628l2.532-1.616v78.355l.698.058V53.576l3.002-1.924v80.715h.698V51.305h-.154l2.841-1.812v17.335h-.026v47.746h.026v17.792h.698v-17.792h3.002v17.792h.698v-17.792h3.002v17.793h.698v-17.793h3.002v17.793h.698v-17.793h3.001v17.793h.698v-17.793h3.002v17.793h.699v-17.793h3.002v17.793h.698v-17.793h3.002v17.793h.698v-17.793h3.003v17.793h.698v-17.793h3.001v17.793h.698v-17.793h3.001v17.793h.699v-17.793h3.002v17.793h.698v-17.793h2.748v17.793h.698v-17.793h3.003v17.793h.697v-17.793h3.002v17.793h.698v-17.793h3.002v17.793h.697v-17.793h3.003v17.793h.698v-17.793h3.001v17.793h.699v-17.793h3.002v17.793h.697v-17.793h3.003v17.793h.698v-17.793h3.001v17.793h.697v-17.793h3.003v17.793h.698v-17.793h3.003v17.793h.697v-17.793h3.002v17.793h.698v-17.793h3.002v17.793h.698v-17.793h.025V66.828h-.025V49.732l2.701 1.717v80.918h.698V51.893l2.775 1.764v78.711h.698V54.1l2.405 1.529v76.636h23.443l.106-.195c7.168-13.051 10.956-27.893 10.956-42.921C212.021 39.992 172.029 0 122.874 0zm55.394 55.592 18.838-14.385a88.896 88.896 0 0 1 4.606 7.989l-23.444 14.348v-7.952zm0 28.588 32.089-7.707a88.97 88.97 0 0 1 .797 8.14l-32.886 4.665V84.18zm0-.285v-5.942l30.251-10.716a88 88 0 0 1 1.799 8.96l-32.05 7.698zm0-6.238v-5.759l27.708-12.884a87.399 87.399 0 0 1 2.473 7.954l-30.181 10.689zm0-6.066V63.87l23.567-14.424a87.922 87.922 0 0 1 4.047 9.305l-27.614 12.84zm0 41.148 27.305 7.7a87.274 87.274 0 0 1-2.975 6.979l-24.33-9.358v-5.321zm0-.287v-5.298l29.864 5.373a88.824 88.824 0 0 1-2.461 7.651l-27.403-7.726zm0-5.58v-5.396l31.761 2.417a89.309 89.309 0 0 1-1.824 8.365l-29.937-5.386zm0-5.676v-5.358l32.807-.885a88.492 88.492 0 0 1-1 8.666l-31.807-2.423zm33.001-12.048c0 1.846-.059 3.688-.173 5.526l-32.828.886v-6.001l32.896-4.668c.066 1.411.105 2.83.105 4.257zm-50.834-45.264 16.796-24.396a89.433 89.433 0 0 1 8.042 7.108l-18.621 21.237-6.217-3.949zm3.403 3.054v19.891h-3.002V45.03l3.002 1.908zm-14.904-10.362 11.425-27.471a88.308 88.308 0 0 1 9.281 5.065l-14.627 26.268-6.079-3.862zm3.803 3.308v26.944h-3.001V37.977l3.001 1.907zm.698.443 3.003 1.908v24.593h-3.003V40.327zm1.811.261 14.629-26.271a88.773 88.773 0 0 1 7.134 5.001L160.2 43.735l-4.954-3.147zm1.89 2.091 3.003 1.908v22.242h-3.003v-24.15zm7.4 4.702 3.002 1.908v17.54h-3.002V47.381zm-19.198-12.199v31.646h-3.002V33.274l3.002 1.908zm-8.538-6.316 4.991-26.069a87.603 87.603 0 0 1 9.173 2.532l-8.192 27.331-5.972-3.794zm4.837 3.965v33.997h-3.001V30.923l3.001 1.908zm-11.218-8.02 2.178-23.521c3.022.332 6 .818 8.924 1.449l-4.973 25.968-6.129-3.896zm3.818 3.317v38.7h-3.002V26.221l3.002 1.907zm-3.7-2.351v41.051h-3.002V23.87l3.002 1.907zm4.398 2.795 3.003 1.908v36.348h-3.003V28.572zM123.057.754v19.734l-6.083 3.88-2.152-23.248a89.285 89.285 0 0 1 8.052-.369c.061.001.121.003.183.003zM110.561 28.46l-4.979-26.009a88.065 88.065 0 0 1 8.965-1.302l2.165 23.387-6.151 3.924zm5.429-2.573v40.941h-3.001V27.803l3.001-1.916zm-11.67 6.554L96.067 4.91a87.807 87.807 0 0 1 9.244-2.401l4.999 26.112-5.99 3.82zm4.271-1.832v36.219h-3.003V32.524l3.003-1.915zM92.05 40.27 77.157 13.526a88.27 88.27 0 0 1 9.416-4.962l11.571 27.818-6.094 3.888zm5.44-2.58v29.138h-3.002V39.606l3.002-1.916zm-15.746 9.155L62.907 24.277a89.08 89.08 0 0 1 6.535-5.493l17.177 24.95-4.875 3.111zm4.647-2.073v22.056h-3.002v-20.14l3.002-1.916zm-3.701 2.361v19.695h-3.002v-17.78l3.002-1.915zm4.398-2.806 3.002-1.916v24.417h-3.002V44.327zm-.235-.742L69.664 18.618a88.395 88.395 0 0 1 7.255-4.95l14.897 26.751-4.963 3.166zm3.936-1.619 3.001-1.915v26.777h-3.001V41.966zm7.591-5.735L86.825 8.448a88.047 88.047 0 0 1 8.979-3.451l8.273 27.6-5.697 3.634zm3.509-1.346 3.002-1.916v33.859h-3.002V34.885zm7.4-4.721 3.001-1.916v38.58h-3.001V30.164zm7.4-4.722 3.002-1.915v43.301h-3.002V25.442zM68.623 76.19v5.349l-32.53-9.172a88.233 88.233 0 0 1 1.926-7.947l30.604 11.77zM38.1 64.153a87.793 87.793 0 0 1 2.703-7.781l27.821 13.766v5.756L38.1 64.153zm30.523 17.673v5.325l-33.779-6.075c.26-2.854.667-5.666 1.193-8.436l32.586 9.186zm0 16.695-33.537.906a88.155 88.155 0 0 1-.586-8.889l34.123 2.596v5.387zm0 .278v6.034l-31.801 4.512a88.812 88.812 0 0 1-1.705-9.64l33.506-.906zm0 6.313v5.124l-29.534 7.095a88.726 88.726 0 0 1-2.203-7.716l31.737-4.503zm0 5.409v5.975l-26.208 9.282a87.603 87.603 0 0 1-3.236-8.184l29.444-7.073zM40.905 56.114a87.861 87.861 0 0 1 3.654-7.913l24.064 14.964v6.663L40.905 56.114zm27.718-.899v7.623L44.684 47.951a88.479 88.479 0 0 1 4.769-7.935l19.434 15.032-.089.057-.175.11zm-33.8 26.138 33.8 6.081v5.423l-34.127-2.595c-.005-.371-.018-.741-.018-1.113 0-2.628.12-5.227.345-7.796zm7.707 44.679 26.093-9.242v5.787l-19.21 8.935h-4.141a86.142 86.142 0 0 1-2.742-5.48zm7.543 5.48 18.55-8.629v8.629h-18.55zM69.134 54.89 49.608 39.786a88.8 88.8 0 0 1 5.657-7.516l19.779 18.849-5.91 3.771zm6.152-3.925L55.444 32.058a89.101 89.101 0 0 1 7.258-7.591l18.806 22.528-6.222 3.97zm25.824 62.912H79.663V67.526h21.447v46.351zm.081-47.049h-3.002V37.245l3.002-1.916v31.499zm21.878 47.049h-21.261V67.526h21.263v46.351zm.068-47.049h-2.748V23.081l2.748-1.753v45.5zm.199-46.518-.002.001V.758a88.93 88.93 0 0 1 8.988.5l-2.167 23.386-6.617-4.206-.202-.128zm3.502 3.117v43.401h-3.003v-45.31l3.003 1.909zm18.579 90.45h-21.648V67.526h21.648v46.351zm-2.401-81.063 8.211-27.398a87.71 87.71 0 0 1 8.88 3.572l-11.411 27.436-5.68-3.61zm3.019 2.811 3.003 1.908v29.295h-3.003V35.625zm21.529 78.252h-21.448V67.526H167.564v46.351zm-.675-65.892 18.58-21.191a89.43 89.43 0 0 1 5.885 6.525L172.169 51.34l-5.28-3.355zm5.523 3.51 19.116-17.958a88.78 88.78 0 0 1 5.424 7.44l-18.685 14.268v-.029l-5.855-3.721zm5.856 72.897 14.386 7.12h-14.386v-7.12zm22.245 7.12h-7.235l-15.01-7.43v-5.724l24.208 9.31a86.254 86.254 0 0 1-1.963 3.844z"/></svg>