<?xml version="1.0" standalone="no"?>
<!DOCTYPE svg PUBLIC "-//W3C//DTD SVG 20010904//EN"
 "http://www.w3.org/TR/2001/REC-SVG-20010904/DTD/svg10.dtd">
<svg version="1.0" xmlns="http://www.w3.org/2000/svg"
 width="1031.000000pt" height="1031.000000pt" viewBox="0 0 1031.000000 1031.000000"
 preserveAspectRatio="xMidYMid meet">
<metadata>
Created by potrace 1.14, written by Peter Selinger 2001-2017
</metadata>
<g transform="translate(0.000000,1031.000000) scale(0.100000,-0.100000)"
fill="#000000" stroke="none">
<path d="M5045 10279 c-184 -22 -354 -142 -433 -304 -36 -73 -61 -167 -57
-214 1 -18 -2 -31 -9 -31 -7 0 -7 -3 -1 -8 13 -9 15 -103 2 -95 -5 3 -4 -3 2
-14 7 -14 7 -24 -2 -33 -7 -7 -7 -10 -1 -7 14 8 13 -105 -1 -115 -7 -5 -7 -8
0 -8 6 0 9 -40 8 -102 -1 -57 -2 -207 -2 -334 l-1 -232 -57 -23 c-79 -32 -250
-136 -336 -205 -266 -213 -460 -508 -543 -829 -22 -83 -24 -92 -34 -160 -25
-174 -26 -207 -15 -360 4 -49 8 -102 9 -117 1 -15 5 -31 9 -34 4 -4 7 -18 7
-30 0 -25 22 -113 38 -154 5 -14 10 -29 11 -35 2 -19 23 -80 42 -121 17 -39
18 -45 3 -95 -9 -30 -19 -58 -22 -64 -4 -5 -7 -12 -8 -15 0 -3 -3 -12 -6 -20
-3 -8 -18 -51 -32 -95 -59 -174 -186 -541 -193 -555 -3 -8 -7 -22 -9 -30 -2
-8 -7 -23 -13 -35 -5 -11 -23 -60 -39 -110 -92 -273 -129 -375 -137 -368 -4 5
-5 3 -2 -4 7 -10 -16 -84 -78 -253 -13 -36 -54 -153 -90 -260 -37 -107 -98
-285 -137 -395 -38 -110 -85 -245 -104 -300 -20 -55 -38 -107 -41 -115 -4 -8
-7 -17 -7 -20 -1 -3 -32 -96 -70 -208 l-70 -202 -353 0 c-276 0 -361 -3 -386
-14 -92 -38 -102 -181 -17 -222 31 -15 36 -22 27 -33 -8 -10 -4 -9 14 2 22 15
28 15 38 4 6 -8 7 -18 3 -22 -4 -5 -2 -5 5 -1 7 4 9 14 6 24 -5 14 -3 15 7 5
9 -8 19 -9 32 -2 13 7 18 6 18 -2 0 -9 3 -9 14 0 10 8 16 9 21 1 4 -7 12 -7
26 0 14 8 19 7 19 -1 0 -9 3 -9 14 0 10 8 16 9 21 1 4 -7 12 -7 26 0 14 8 19
7 19 -1 0 -9 3 -9 14 0 10 8 16 9 21 1 4 -7 12 -7 26 0 14 8 19 7 19 -1 0 -9
3 -9 14 0 10 8 16 9 21 1 4 -7 12 -7 26 0 14 8 19 7 19 -1 0 -9 3 -9 14 0 10
8 16 9 21 1 4 -7 12 -7 26 0 14 8 19 7 19 -1 0 -9 3 -9 14 0 10 8 16 9 21 1 4
-7 12 -7 26 0 12 7 19 7 19 1 0 -6 7 -8 15 -5 9 4 15 0 15 -10 0 -9 -5 -16
-11 -16 -5 0 -8 -4 -5 -8 4 -6 -25 -98 -57 -182 -3 -8 -15 -44 -27 -80 -13
-36 -54 -155 -92 -265 -38 -110 -89 -256 -113 -325 -24 -69 -73 -210 -110
-315 -84 -238 -116 -355 -118 -425 -1 -30 -6 -58 -12 -62 -7 -5 -7 -8 0 -8 7
0 11 -25 10 -60 0 -33 4 -60 9 -60 5 0 2 -8 -5 -17 -7 -10 -9 -15 -4 -10 5 4
19 -28 31 -72 13 -43 38 -103 55 -132 18 -30 32 -60 32 -66 0 -7 2 -11 4 -9 2
2 37 -30 78 -71 41 -41 75 -71 75 -68 0 3 9 1 21 -5 17 -10 18 -14 7 -28 -12
-15 -11 -16 5 -3 13 11 21 11 29 3 11 -11 -19 -99 -81 -242 -8 -19 -15 -37
-16 -40 -1 -3 -5 -14 -10 -25 -4 -11 -25 -65 -47 -120 -21 -55 -45 -113 -53
-130 -32 -68 -76 -197 -77 -223 -1 -15 4 -38 11 -50 7 -12 9 -27 6 -32 -4 -6
-3 -10 2 -9 10 3 63 -22 63 -30 0 -12 85 -6 99 7 7 7 19 11 26 9 6 -3 12 0 12
6 1 7 10 29 21 49 15 29 22 34 33 25 11 -10 11 -9 1 4 -17 23 55 202 77 194
13 -5 14 -4 3 6 -15 16 -16 33 0 23 6 -4 8 -3 5 4 -10 15 33 123 46 115 6 -3
7 -1 3 6 -10 15 15 82 27 74 6 -3 7 -1 3 5 -5 9 21 87 68 197 7 17 18 43 25
59 11 27 13 28 64 22 29 -3 53 -6 55 -6 2 0 1 -4 -3 -9 -3 -5 -1 -13 5 -16 6
-4 9 -1 8 7 -2 8 7 13 22 14 14 1 39 3 56 5 18 2 40 -3 50 -11 18 -14 18 -14
5 3 -12 15 -11 17 15 19 16 1 37 2 47 1 9 0 17 5 17 10 0 5 7 7 15 3 8 -3 15
-2 15 3 0 11 71 31 84 24 6 -3 8 -3 4 2 -10 11 80 67 94 59 7 -4 8 -2 4 4 -6
11 31 38 47 34 4 -1 6 1 5 5 -4 13 44 63 54 57 5 -3 8 -2 6 3 -3 14 44 83 53
77 5 -3 9 -2 8 3 -3 20 2 44 9 40 4 -3 8 7 9 21 0 15 6 28 12 30 5 2 7 10 4
19 -5 12 -3 14 7 8 8 -5 11 -4 7 2 -7 10 10 73 22 83 3 3 7 12 8 20 3 20 40
127 50 143 4 6 8 17 8 22 1 6 4 17 7 25 4 8 14 39 23 68 9 28 20 52 25 52 4 0
8 6 7 13 -1 29 4 48 11 44 4 -3 8 8 8 25 1 17 5 33 10 37 5 3 10 13 11 21 1 8
25 80 53 160 28 80 61 173 73 208 15 45 25 61 35 57 12 -4 12 -2 3 8 -9 11 -6
28 11 73 12 33 26 60 30 62 4 2 4 10 1 18 -3 8 0 14 7 14 6 0 9 4 5 9 -3 6 4
34 15 63 12 29 23 64 26 78 3 13 9 29 13 35 5 5 11 23 15 38 4 15 10 26 15 23
4 -3 7 6 5 19 -1 14 4 31 11 39 8 7 12 16 10 18 -10 9 27 98 37 91 7 -3 8 -1
4 6 -8 13 73 263 83 257 3 -2 7 10 7 27 1 17 6 33 12 35 6 2 8 10 5 19 -5 12
-3 14 7 8 8 -5 11 -4 7 2 -4 6 -2 25 4 42 11 31 12 31 31 15 17 -16 18 -16 13
-1 -6 14 -2 15 24 7 21 -6 31 -5 35 3 3 9 5 9 5 0 1 -9 8 -10 24 -4 27 10 50
3 40 -12 -4 -8 -2 -8 9 1 18 15 78 23 78 10 0 -5 8 -4 19 1 20 11 48 -8 33
-24 -4 -5 -1 -5 6 -1 7 4 10 11 7 16 -3 4 2 11 11 14 10 4 13 2 8 -6 -5 -7 -3
-8 6 -3 18 11 110 12 110 1 0 -5 6 -3 14 3 10 8 16 9 21 1 4 -7 12 -7 26 0 14
8 19 7 19 -1 0 -9 3 -9 14 0 10 8 16 9 21 1 4 -7 12 -7 26 0 14 8 19 7 19 -1
0 -9 3 -9 14 0 10 8 16 9 21 1 4 -7 12 -7 26 0 14 8 19 7 19 -1 0 -9 3 -9 14
0 10 8 16 9 21 1 4 -7 12 -7 26 0 14 8 19 7 19 -1 0 -9 3 -9 14 0 10 8 16 9
21 1 4 -7 12 -7 26 0 14 8 19 7 19 -1 0 -9 3 -9 14 0 10 8 16 9 21 1 4 -7 12
-7 26 0 14 8 19 7 19 -1 0 -9 3 -9 14 0 10 8 16 9 21 1 4 -7 12 -7 26 0 14 8
19 7 19 -1 0 -9 3 -9 14 0 9 8 16 8 20 2 4 -5 18 -6 34 -2 33 10 55 4 45 -12
-4 -8 -2 -8 9 1 20 16 78 23 78 9 0 -8 3 -8 11 0 7 7 21 8 39 3 20 -6 30 -4
34 3 3 9 5 9 5 0 1 -9 8 -10 24 -4 27 10 50 3 40 -12 -4 -8 -2 -8 9 1 20 16
78 23 78 9 0 -8 3 -8 11 0 7 7 21 8 39 3 20 -6 30 -4 34 3 3 9 5 9 5 0 1 -9 8
-10 24 -4 27 10 50 3 40 -12 -4 -8 -2 -8 9 1 20 16 78 23 78 9 0 -8 3 -8 11 0
7 7 21 8 39 3 20 -6 30 -4 34 3 3 9 5 9 5 0 1 -9 8 -10 24 -4 27 10 50 3 40
-12 -4 -8 -2 -8 9 1 20 16 78 23 78 9 0 -8 3 -8 11 0 7 7 21 8 39 3 20 -6 30
-4 34 3 3 9 5 9 5 0 1 -9 8 -10 24 -4 13 5 30 6 37 1 7 -4 22 -5 33 -1 35 13
63 1 75 -32 9 -22 9 -34 0 -44 -9 -11 -7 -12 7 -6 14 5 17 3 12 -10 -3 -8 -2
-17 2 -19 11 -5 81 -209 75 -219 -3 -5 0 -9 6 -9 7 0 9 -7 6 -16 -4 -10 -2
-13 6 -8 7 5 9 2 5 -9 -3 -9 -3 -17 1 -19 7 -3 52 -121 56 -148 1 -8 7 -24 13
-35 6 -11 18 -44 28 -73 14 -44 15 -55 3 -70 -11 -15 -11 -16 3 -4 15 11 21 0
54 -95 21 -60 38 -116 39 -125 0 -10 3 -18 7 -18 3 0 12 -21 19 -47 7 -27 16
-52 19 -58 16 -24 32 -86 25 -96 -5 -8 -3 -9 6 -4 10 6 12 4 7 -8 -3 -9 -1
-17 4 -19 6 -2 11 -10 12 -18 2 -8 6 -20 10 -27 4 -6 8 -23 9 -37 1 -14 5 -26
9 -26 7 0 35 -91 31 -102 -1 -5 2 -8 8 -8 5 0 10 -6 10 -12 0 -7 16 -55 35
-106 19 -51 31 -100 28 -109 -4 -11 -3 -14 5 -9 11 7 13 3 16 -36 1 -7 5 -16
9 -19 5 -4 10 -18 10 -32 1 -14 5 -23 8 -21 4 2 9 -6 12 -19 15 -68 112 -306
142 -352 31 -46 78 -93 162 -162 10 -8 12 -11 4 -7 -9 5 -12 3 -7 -5 4 -6 11
-9 16 -6 13 8 52 -14 45 -25 -3 -5 0 -12 6 -16 8 -4 9 -3 5 4 -4 7 -3 12 2 12
17 0 92 -37 87 -42 -3 -3 6 -3 21 0 15 3 24 1 21 -4 -3 -5 11 -10 31 -12 19
-1 42 -8 51 -15 12 -10 13 -9 7 1 -7 11 -4 12 10 5 11 -5 38 -8 62 -7 30 2 40
-1 35 -9 -4 -7 1 -6 10 2 10 8 20 11 24 8 3 -4 14 -2 24 4 13 6 19 6 19 -1 0
-5 5 -10 11 -10 5 0 7 4 4 10 -3 6 4 10 17 10 20 0 27 -9 43 -52 10 -29 18
-55 16 -57 -1 -2 1 -7 7 -10 15 -10 73 -171 66 -183 -4 -6 -3 -8 3 -5 10 6 76
-149 76 -179 0 -8 3 -14 7 -14 4 0 17 -28 30 -62 12 -35 27 -68 32 -75 5 -7 7
-17 3 -23 -3 -5 -1 -10 5 -10 7 0 10 -6 8 -12 -3 -7 2 -19 9 -27 8 -7 12 -20
9 -28 -4 -9 -2 -11 6 -7 7 5 9 0 6 -14 -4 -14 -2 -19 7 -16 7 3 19 -3 26 -13
8 -10 25 -19 39 -21 13 -1 28 -8 32 -15 6 -9 8 -9 8 0 0 6 9 10 20 8 11 -2 20
0 20 4 0 5 13 14 30 21 16 7 32 21 35 31 4 10 9 19 13 19 4 0 8 16 9 36 1 31
-62 216 -107 309 -5 11 -41 101 -80 200 -39 99 -77 194 -84 210 -30 67 -30 73
11 93 21 11 41 19 45 18 3 0 10 3 15 8 5 5 2 6 -7 2 -8 -4 -4 1 10 12 13 11
28 18 32 15 5 -2 7 -1 6 4 -5 13 39 56 50 49 5 -3 9 2 8 12 0 9 5 16 12 14 8
-1 11 2 7 8 -4 6 5 24 19 40 13 17 28 39 31 50 4 11 11 17 17 14 7 -4 8 -2 4
4 -4 6 -1 24 7 39 15 29 43 141 51 203 5 36 9 151 6 160 -1 3 -4 21 -7 40 -9
71 -32 150 -103 350 -39 113 -94 268 -120 345 -27 77 -85 246 -130 375 -45
129 -88 255 -96 280 -8 25 -18 52 -23 60 -5 9 -12 31 -16 50 -4 19 -12 41 -17
48 -6 6 -7 12 -3 12 4 0 3 6 -2 13 -16 20 -22 56 -9 60 6 2 23 0 38 -4 18 -5
29 -3 32 4 3 9 5 9 5 0 1 -9 8 -10 24 -4 27 10 50 3 40 -12 -4 -8 -2 -8 9 1
20 16 78 23 78 9 0 -8 3 -8 11 0 7 7 21 8 39 3 20 -6 30 -4 34 3 3 9 5 9 5 0
1 -9 8 -10 24 -4 27 10 50 3 40 -12 -4 -8 -2 -8 9 1 17 13 78 23 78 12 0 -4 7
-7 15 -7 8 0 15 5 15 10 0 5 7 4 15 -3 8 -6 20 -8 26 -4 7 4 33 8 59 9 25 1
58 10 73 19 14 10 32 14 39 10 10 -5 10 -4 2 5 -9 10 -8 19 2 39 27 52 8 124
-42 157 -27 19 -53 20 -403 25 l-374 5 -43 125 c-24 69 -57 163 -73 210 -16
47 -62 177 -101 290 -40 113 -78 223 -85 245 -22 65 -162 467 -174 499 -7 16
-9 36 -6 45 3 8 3 12 -1 8 -5 -4 -23 36 -42 90 -18 54 -48 141 -67 193 -18 52
-54 156 -80 230 -77 223 -119 345 -195 560 -39 113 -73 212 -75 220 -2 8 -20
60 -40 115 -30 83 -46 129 -60 175 -2 7 -15 42 -25 67 -9 22 16 107 29 99 3
-2 6 6 7 17 1 37 50 188 58 180 4 -4 5 -1 2 7 -3 8 3 62 13 120 14 80 18 145
16 270 -1 91 -5 176 -8 189 -4 13 -8 43 -9 67 -2 24 -6 44 -10 44 -5 0 -8 12
-8 28 0 15 -18 80 -40 145 -139 412 -430 743 -816 928 -49 23 -91 44 -94 46
-9 8 -5 371 4 366 5 -4 5 0 0 8 -12 19 -11 82 1 91 6 5 5 8 -2 8 -7 0 -13 5
-13 11 0 5 6 7 13 3 9 -6 9 -4 1 7 -12 16 -12 48 -1 67 5 6 4 12 -2 12 -10 0
-10 18 2 36 3 6 3 14 -1 18 -11 11 -8 70 3 78 6 5 5 8 -2 8 -7 0 -13 5 -13 11
0 5 6 7 13 3 9 -6 9 -4 1 7 -12 16 -12 48 -1 67 5 6 4 12 -2 12 -10 0 -10 18
2 36 3 6 3 14 -1 18 -11 11 -8 70 3 78 7 5 6 8 0 8 -6 0 -10 15 -10 33 3 88
-75 247 -169 342 -130 132 -301 188 -501 164z m130 -259 c-2 -4 9 -4 26 -2 18
3 29 0 29 -7 0 -7 4 -10 10 -6 37 23 197 -120 174 -156 -4 -7 -3 -9 3 -6 6 4
18 -10 26 -31 13 -33 15 -107 15 -495 -1 -251 -4 -455 -7 -452 -4 2 -29 6 -56
9 -28 4 -70 9 -95 12 -120 17 -409 3 -475 -22 -11 -5 -15 1 -15 22 0 16 0 189
1 384 0 195 0 389 0 430 0 86 14 154 31 144 7 -5 8 -3 4 5 -19 30 101 148 157
155 12 2 29 6 37 9 8 3 22 8 30 10 21 7 109 4 105 -3z m49 -1432 c-6 -10 -4
-10 7 -3 16 12 22 12 102 1 31 -4 57 -11 57 -16 0 -4 10 -6 22 -2 11 3 19 1
16 -4 -3 -5 10 -10 31 -11 50 -2 213 -62 204 -75 -3 -6 -1 -8 5 -4 14 9 63
-14 55 -27 -3 -6 -1 -7 4 -4 15 10 105 -42 97 -55 -4 -7 -2 -8 5 -4 15 10 113
-62 104 -76 -3 -7 -1 -8 5 -4 14 8 144 -113 135 -127 -3 -5 -1 -7 4 -4 6 4 34
-24 62 -61 28 -37 58 -76 66 -87 9 -11 13 -26 10 -33 -2 -7 -1 -10 5 -7 12 7
33 -32 24 -47 -4 -6 -3 -8 4 -4 10 6 28 -30 24 -46 -1 -5 2 -8 7 -8 9 0 27
-40 22 -49 -2 -2 1 -7 7 -10 12 -8 62 -152 66 -193 2 -18 7 -42 12 -52 4 -11
8 -35 8 -53 1 -18 4 -33 7 -33 15 0 15 -308 0 -323 -5 -5 -7 -16 -4 -23 6 -16
-21 -148 -43 -214 -71 -208 -170 -366 -327 -522 -59 -60 -112 -108 -117 -108
-5 0 -15 -6 -22 -13 -28 -28 -191 -120 -270 -152 -172 -69 -316 -94 -519 -91
-80 1 -149 5 -155 8 -5 3 -27 9 -49 12 -116 18 -304 89 -416 157 -204 124
-385 320 -492 535 -35 70 -90 224 -101 281 -21 118 -27 165 -28 246 -1 148 1
199 11 193 5 -4 7 2 4 12 -4 17 5 79 21 137 28 106 39 140 62 191 15 32 26 63
25 67 0 4 6 10 14 13 8 3 13 10 10 14 -3 5 3 16 12 26 10 10 18 20 18 23 0 3
3 5 7 4 4 -2 5 4 2 12 -4 8 -1 15 5 15 6 0 10 3 9 8 -5 17 24 53 39 48 13 -5
14 -4 4 8 -10 11 -7 17 11 30 12 9 19 16 14 16 -5 0 -3 7 4 15 7 8 16 12 21 9
5 -3 9 -2 8 3 -4 21 2 33 17 33 8 0 13 4 10 8 -7 12 49 64 59 55 4 -5 5 -3 2
4 -8 13 71 85 85 77 5 -3 7 0 6 6 -4 15 133 111 150 105 7 -3 11 -1 8 3 -7 12
52 44 66 36 6 -4 8 -3 5 3 -8 13 20 26 35 16 7 -3 8 -1 4 5 -10 16 16 15 34 0
12 -11 12 -10 2 3 -10 14 -10 18 4 23 9 3 21 3 26 -1 6 -3 8 -2 5 4 -6 9 52
32 93 38 8 1 22 5 31 9 9 4 27 8 40 10 13 2 31 6 39 10 9 4 38 7 65 9 37 1 49
-1 47 -11 -1 -8 2 -11 8 -7 6 3 8 10 5 15 -9 14 17 18 123 19 80 1 101 -2 96
-11z m1182 -2234 c-3 -8 0 -14 5 -14 6 0 9 -9 6 -20 -3 -11 -1 -18 4 -14 5 3
9 -4 9 -15 0 -11 5 -23 11 -27 6 -3 9 -15 6 -25 -3 -12 -1 -17 6 -12 6 4 8 -2
4 -16 -3 -13 -3 -20 0 -17 9 9 44 -97 38 -114 -4 -8 -3 -11 1 -7 9 9 36 -52
28 -64 -3 -5 -1 -9 4 -9 12 0 32 -69 25 -88 -4 -9 -2 -13 4 -9 6 4 15 -11 22
-34 10 -33 10 -44 -1 -57 -12 -15 -11 -16 4 -4 15 12 18 9 28 -27 6 -23 8 -47
4 -53 -4 -6 -3 -8 4 -4 6 4 19 -20 32 -61 12 -38 26 -77 31 -88 6 -12 11 -27
13 -35 2 -8 6 -22 9 -30 3 -8 7 -24 9 -35 2 -11 6 -22 10 -25 4 -3 9 -17 10
-30 2 -14 6 -27 10 -30 4 -3 9 -17 10 -30 2 -14 7 -28 11 -31 5 -4 10 -18 10
-32 1 -14 5 -23 8 -21 4 2 9 -6 12 -19 5 -24 113 -339 127 -372 29 -69 70
-207 64 -218 -4 -6 -3 -9 1 -4 5 4 15 -7 22 -24 10 -25 10 -35 1 -46 -9 -11
-8 -13 2 -11 7 2 19 -15 29 -42 9 -25 20 -51 24 -58 5 -7 6 -19 3 -27 -3 -8
-2 -15 2 -15 9 0 45 -102 45 -125 0 -8 3 -15 7 -15 11 0 40 -107 34 -126 -4
-14 -3 -15 4 -6 6 10 16 -7 33 -60 13 -40 24 -77 25 -83 1 -5 9 -28 19 -50 9
-22 18 -50 19 -62 0 -13 5 -23 10 -23 4 0 5 -7 2 -16 -4 -10 -2 -13 6 -8 7 5
9 2 5 -9 -3 -9 -2 -17 2 -19 8 -3 74 -195 74 -215 0 -7 4 -13 7 -13 7 0 33
-81 34 -105 1 -5 5 -13 10 -16 5 -4 9 -20 10 -37 0 -17 4 -28 9 -25 6 4 9 -12
6 -33 0 -4 3 -10 8 -13 5 -3 16 -28 25 -56 9 -27 43 -128 77 -224 33 -95 58
-179 54 -185 -3 -6 -3 -8 2 -4 6 6 59 -126 79 -197 2 -5 6 -18 11 -27 4 -10 8
-29 9 -42 0 -13 4 -23 7 -21 9 6 61 -164 53 -177 -4 -7 -3 -8 4 -4 11 6 15 -5
11 -30 0 -4 4 -10 10 -13 6 -4 12 -19 13 -34 1 -15 5 -27 9 -27 14 0 20 -52 7
-68 -12 -15 -11 -16 5 -3 15 12 17 11 17 -7 0 -12 4 -23 9 -26 8 -6 26 -73 23
-88 -1 -5 2 -8 7 -8 8 0 24 -45 26 -75 1 -5 9 -25 18 -42 10 -18 15 -33 12
-33 -3 0 2 -14 10 -31 9 -17 14 -37 11 -45 -3 -8 -2 -13 2 -10 12 7 45 -101
36 -116 -4 -6 -3 -8 3 -5 12 8 27 -38 18 -53 -4 -6 -2 -10 3 -10 6 0 9 -14 8
-31 -1 -16 0 -32 4 -34 3 -2 5 -23 4 -47 -2 -24 -3 -51 -3 -61 -1 -12 -6 -16
-13 -11 -10 5 -10 4 -2 -5 24 -26 -31 -156 -92 -221 -106 -112 -341 -172 -494
-127 -74 22 -168 84 -203 134 -15 22 -43 82 -61 134 -18 52 -36 101 -39 109
-3 8 -29 80 -57 160 -28 80 -54 152 -57 160 -22 60 -109 309 -129 370 -14 41
-30 84 -35 95 -5 11 -20 52 -33 90 -40 115 -161 460 -216 615 -29 80 -56 156
-60 170 -5 14 -36 104 -70 200 -34 96 -73 209 -86 250 -14 41 -30 84 -34 95
-5 11 -28 74 -50 140 -109 316 -143 412 -151 430 -4 11 -15 40 -23 65 -8 25
-47 137 -87 250 -39 113 -79 230 -89 260 -10 30 -33 96 -50 145 -44 124 -221
638 -224 650 -2 6 -6 17 -9 25 -12 34 -27 84 -27 93 0 5 9 7 21 4 12 -3 18 -3
15 1 -9 8 105 53 117 45 5 -3 7 -1 4 4 -4 6 3 13 16 17 12 3 60 28 107 56 47
28 93 52 102 53 9 1 15 4 12 8 -7 12 43 38 65 34 12 -2 19 0 16 6 -4 5 -11 7
-16 4 -5 -4 -9 -3 -9 2 0 10 71 59 82 56 4 -2 7 1 5 5 -3 10 176 188 186 184
5 -1 6 2 2 8 -8 13 14 42 26 34 5 -3 9 -2 8 3 -4 20 2 34 12 28 6 -4 8 -13 5
-21z m-2513 -17 c-3 -5 -2 -7 4 -4 12 7 56 -50 49 -62 -3 -5 2 -8 12 -7 9 0
16 -5 15 -11 -2 -7 2 -13 8 -13 5 0 7 -5 3 -12 -4 -6 -3 -8 3 -5 13 8 57 -29
49 -42 -4 -5 -1 -13 5 -17 8 -4 9 -3 5 4 -13 22 5 12 42 -22 62 -58 85 -76
119 -97 18 -12 30 -26 27 -31 -4 -7 -2 -8 4 -4 14 9 115 -58 104 -69 -4 -5 -2
-5 5 -1 17 9 75 -22 67 -36 -4 -6 -3 -8 4 -4 6 3 22 2 37 -4 24 -9 25 -12 14
-27 -13 -15 -12 -15 6 -4 16 10 27 9 60 -5 22 -10 45 -19 50 -20 6 -1 22 -7
37 -13 l27 -10 -31 -88 c-16 -48 -67 -196 -113 -328 -46 -132 -97 -280 -115
-330 -17 -49 -33 -94 -34 -100 -2 -5 -6 -17 -9 -25 -3 -8 -30 -87 -60 -175
-30 -88 -60 -173 -67 -190 -6 -16 -13 -37 -15 -45 -2 -8 -33 -98 -68 -200 -36
-102 -93 -264 -126 -360 -34 -96 -64 -182 -68 -190 -3 -8 -7 -19 -9 -25 -4
-17 -134 -388 -149 -425 -7 -19 -50 -141 -95 -270 -103 -296 -139 -400 -150
-425 -5 -11 -30 -83 -56 -160 -26 -77 -51 -148 -56 -158 -5 -10 -11 -26 -13
-35 -3 -14 -85 -247 -166 -472 -11 -30 -29 -80 -39 -110 -10 -30 -37 -107 -60
-170 -23 -63 -49 -135 -58 -160 -32 -92 -165 -190 -278 -206 -106 -14 -163 -8
-269 28 -206 70 -299 211 -291 438 2 70 11 109 48 218 24 73 48 129 53 125 4
-5 5 -3 2 3 -8 14 13 84 25 84 5 0 7 4 4 9 -9 14 46 161 57 154 6 -3 7 -1 3 6
-8 12 23 113 37 119 4 2 5 8 2 13 -3 5 0 19 7 31 6 13 13 28 14 33 4 23 68
210 73 215 3 3 6 12 6 20 0 8 5 14 11 13 7 -1 9 8 6 24 -4 20 -2 24 8 18 9 -5
11 -4 6 4 -8 13 32 141 47 152 5 3 7 8 6 10 -5 7 24 99 31 99 4 0 8 6 7 13 -1
29 4 48 11 44 4 -3 8 9 9 25 1 17 6 35 11 42 4 6 19 46 32 88 14 43 29 78 33
78 5 0 6 4 3 9 -7 11 14 72 22 67 4 -2 8 6 8 17 3 47 38 139 49 130 4 -5 5 -3
2 3 -9 16 14 95 26 87 5 -3 7 -1 4 4 -9 15 27 116 37 106 5 -4 6 -3 2 4 -10
17 25 124 37 116 6 -3 7 -2 4 4 -5 9 59 217 83 268 5 11 14 39 21 63 7 23 15
42 19 42 4 0 7 6 7 13 -1 21 15 77 22 77 4 0 8 12 9 26 1 15 6 32 11 38 5 6
12 26 16 44 3 17 11 32 16 32 5 0 8 3 7 8 -4 14 13 82 21 82 4 0 8 6 9 13 4
43 35 127 45 120 6 -3 7 -1 3 6 -7 11 19 106 35 127 5 6 6 14 2 17 -3 4 -2 7
3 7 5 0 10 8 11 18 4 36 70 212 78 205 4 -5 5 -3 2 3 -6 11 40 162 53 174 3 3
5 11 6 18 2 29 5 33 16 26 7 -4 8 -3 4 4 -9 15 14 93 25 86 5 -3 6 1 3 9 -5
13 62 216 75 227 3 3 6 11 7 18 2 28 4 33 13 27 6 -3 8 3 6 14 -5 28 6 62 18
54 5 -3 7 -1 4 4 -9 15 37 146 47 136 5 -4 6 -3 2 4 -8 15 24 123 36 123 5 0
7 4 4 9 -7 11 16 71 27 71 4 0 6 4 2 9 -5 9 1 27 31 106 4 11 8 22 9 25 19 62
29 89 34 86 3 -2 7 8 7 22 1 15 7 40 13 56 9 23 14 26 26 16 8 -7 12 -17 8
-23z m1087 -587 c0 -3 24 -5 53 -4 29 1 55 -4 59 -10 5 -7 8 -7 8 -1 0 6 35
10 90 10 53 0 90 4 90 10 0 6 4 4 9 -4 6 -9 11 -10 15 -2 4 6 22 11 40 11 31
0 33 -2 55 -70 12 -39 19 -75 15 -82 -4 -6 -3 -8 3 -5 10 6 113 -276 116 -315
1 -10 5 -18 10 -18 5 0 7 -7 3 -15 -3 -8 -1 -15 5 -15 6 0 9 -7 5 -15 -3 -8
-2 -15 3 -15 8 0 35 -88 31 -104 -1 -5 2 -12 8 -15 14 -9 42 -102 35 -115 -3
-6 -2 -8 2 -3 10 9 67 -152 60 -171 -2 -7 -1 -11 3 -8 7 4 52 -117 56 -149 1
-5 5 -13 9 -16 5 -4 10 -18 10 -33 1 -14 6 -26 11 -26 4 0 5 -7 2 -16 -3 -8
-2 -12 4 -9 6 3 10 0 11 -7 1 -22 7 -40 34 -113 14 -38 23 -75 20 -83 -2 -7 0
-10 5 -7 6 3 11 0 12 -7 3 -27 5 -34 21 -72 9 -21 17 -41 17 -45 0 -3 25 -73
55 -155 30 -82 52 -153 49 -158 -3 -4 -1 -8 3 -8 8 0 58 -142 58 -165 0 -5 4
-13 8 -16 4 -3 9 -16 10 -27 1 -12 4 -22 8 -22 5 0 29 -68 29 -84 0 -3 -448
-6 -995 -6 -547 0 -995 2 -995 4 0 17 14 35 23 29 6 -3 7 -1 3 5 -10 17 13 94
26 86 7 -4 8 -3 4 4 -8 13 3 64 13 58 3 -2 7 10 7 27 1 17 6 33 13 35 6 2 9 8
5 13 -3 5 -1 9 4 9 6 0 10 6 9 13 -1 33 4 58 11 54 4 -3 8 7 9 21 0 15 6 28
12 30 6 2 9 7 6 11 -2 5 14 59 36 122 23 63 50 141 62 174 11 33 23 62 26 65
3 3 6 10 7 15 1 27 19 71 33 83 10 9 11 11 2 6 -11 -6 -13 -3 -7 12 14 34 57
158 72 207 9 30 19 45 26 41 7 -4 8 -3 4 4 -8 13 13 92 24 92 4 0 7 6 7 13 -1
23 16 77 24 77 5 0 5 7 2 17 -4 10 -2 14 4 10 7 -5 9 1 5 15 -3 11 -1 19 4 16
5 -4 10 5 10 18 1 13 5 32 9 42 5 9 9 22 11 27 13 45 66 191 72 195 4 3 8 14
8 25 1 21 45 146 54 155 3 3 6 14 8 25 6 41 37 120 51 133 11 9 12 12 2 12
-11 0 -11 3 -1 15 7 8 9 15 5 15 -4 0 -3 6 3 13 5 6 13 27 17 45 3 18 11 30
16 27 5 -4 6 0 3 8 -2 7 0 26 5 41 10 23 15 26 51 24 22 -2 40 -5 40 -8z"/>
<path d="M5150 9991 c0 -6 4 -13 10 -16 6 -3 7 1 4 9 -7 18 -14 21 -14 7z"/>
<path d="M5320 8570 c-9 -6 -10 -10 -3 -10 6 0 15 5 18 10 8 12 4 12 -15 0z"/>
<path d="M5490 8530 c0 -5 5 -10 11 -10 5 0 7 5 4 10 -3 6 -8 10 -11 10 -2 0
-4 -4 -4 -10z"/>
<path d="M5695 8450 c3 -5 8 -10 11 -10 2 0 4 5 4 10 0 6 -5 10 -11 10 -5 0
-7 -4 -4 -10z"/>
<path d="M4359 8303 c-13 -16 -12 -17 4 -4 16 13 21 21 13 21 -2 0 -10 -8 -17
-17z"/>
<path d="M5970 8256 c0 -2 7 -7 16 -10 8 -3 12 -2 9 4 -6 10 -25 14 -25 6z"/>
<path d="M4985 8034 c-230 -49 -431 -216 -524 -433 -12 -29 -24 -61 -26 -70
-2 -9 -8 -36 -14 -61 -5 -25 -11 -66 -13 -92 -2 -27 -7 -48 -13 -48 -5 0 -5
-4 1 -8 7 -4 12 -20 11 -37 0 -16 3 -52 8 -80 5 -27 9 -62 9 -77 1 -14 3 -24
5 -22 5 5 31 -53 31 -68 0 -5 -5 -6 -12 -2 -7 4 -8 3 -4 -5 4 -6 11 -9 16 -6
11 7 22 -24 13 -38 -3 -7 -2 -9 2 -4 9 7 57 -68 58 -90 0 -7 5 -11 11 -10 6 1
10 -6 10 -15 -1 -10 4 -14 12 -11 19 7 17 -6 -3 -31 -18 -21 -18 -21 5 -2 20
17 27 15 23 -7 -1 -5 3 -6 7 -3 10 6 40 -23 41 -38 0 -6 8 -11 17 -12 9 -2 20
-6 23 -11 3 -5 18 -16 33 -26 16 -10 27 -23 25 -30 -1 -6 4 -11 11 -9 23 4
113 -42 107 -55 -2 -7 0 -13 4 -13 5 0 11 5 13 11 3 9 11 8 28 -1 14 -8 32
-15 40 -16 8 -2 34 -6 57 -10 24 -3 40 -10 38 -14 -6 -9 15 -8 30 2 6 4 17 3
24 -1 7 -5 22 -6 32 -4 11 3 27 -1 36 -8 14 -12 16 -12 8 0 -6 11 -4 13 8 8 9
-3 19 -1 23 5 4 7 9 6 15 -3 7 -12 9 -12 9 0 0 9 8 12 25 9 14 -3 25 -1 25 5
0 5 11 7 25 5 13 -3 26 -2 27 3 2 4 17 9 33 11 17 2 32 6 35 9 11 13 73 38 81
33 5 -3 9 0 9 6 0 7 7 9 16 6 8 -3 13 -2 10 3 -3 5 5 16 19 25 14 9 25 14 25
11 0 -3 8 3 18 13 75 70 107 97 114 95 4 -2 7 1 5 5 -3 12 75 122 86 122 6 0
8 3 4 6 -3 4 4 27 17 53 56 110 82 272 65 399 -12 85 -14 96 -20 107 -3 6 -12
30 -19 55 -34 109 -133 245 -235 323 -140 107 -258 149 -425 152 -65 1 -141
-3 -175 -11z m300 -323 c72 -32 146 -84 140 -99 -3 -7 0 -10 5 -7 5 3 23 -14
40 -37 190 -262 41 -627 -276 -676 -258 -41 -494 163 -494 427 0 41 24 144 42
178 6 12 16 20 21 16 6 -3 7 -1 3 5 -9 15 23 64 37 55 5 -3 7 -1 3 5 -12 20
105 119 126 106 6 -4 8 -3 4 4 -5 9 39 28 109 46 49 12 191 -1 240 -23z"/>
<path d="M5113 7715 c0 -8 4 -12 9 -9 5 3 6 10 3 15 -9 13 -12 11 -12 -6z"/>
<path d="M5227 7709 c7 -7 15 -10 18 -7 3 3 -2 9 -12 12 -14 6 -15 5 -6 -5z"/>
<path d="M4850 7610 c0 -5 5 -10 11 -10 5 0 7 5 4 10 -3 6 -8 10 -11 10 -2 0
-4 -4 -4 -10z"/>
<path d="M5719 6863 c-13 -16 -12 -17 4 -4 9 7 17 15 17 17 0 8 -8 3 -21 -13z"/>
<path d="M5350 6589 c0 -5 5 -7 10 -4 6 3 10 8 10 11 0 2 -4 4 -10 4 -5 0 -10
-5 -10 -11z"/>
<path d="M4955 6570 c-3 -5 -1 -10 4 -10 6 0 11 5 11 10 0 6 -2 10 -4 10 -3 0
-8 -4 -11 -10z"/>
<path d="M5236 6568 c3 -4 11 -5 19 -1 21 7 19 12 -4 10 -11 0 -18 -5 -15 -9z"/>
<path d="M6210 6156 c0 -2 7 -7 16 -10 8 -3 12 -2 9 4 -6 10 -25 14 -25 6z"/>
<path d="M6194 6126 c1 -8 5 -18 8 -22 4 -3 5 1 4 10 -1 8 -5 18 -8 22 -4 3
-5 -1 -4 -10z"/>
<path d="M6046 6012 c-3 -5 1 -9 9 -9 8 0 12 4 9 9 -3 4 -7 8 -9 8 -2 0 -6 -4
-9 -8z"/>
<path d="M5756 5848 c3 -4 11 -5 19 -1 21 7 19 12 -4 10 -11 0 -18 -5 -15 -9z"/>
<path d="M4940 5736 c0 -2 8 -10 18 -17 15 -13 16 -12 3 4 -13 16 -21 21 -21
13z"/>
<path d="M4810 5471 c0 -6 4 -13 10 -16 6 -3 7 1 4 9 -7 18 -14 21 -14 7z"/>
<path d="M4435 3301 c-3 -5 -2 -12 3 -15 5 -3 9 1 9 9 0 17 -3 19 -12 6z"/>
<path d="M4473 3285 c0 -8 4 -12 9 -9 5 3 6 10 3 15 -9 13 -12 11 -12 -6z"/>
<path d="M1910 3286 c0 -2 8 -10 18 -17 15 -13 16 -12 3 4 -13 16 -21 21 -21
13z"/>
<path d="M1989 3273 c-13 -16 -12 -17 4 -4 16 13 21 21 13 21 -2 0 -10 -8 -17
-17z"/>
<path d="M4066 3268 c3 -5 10 -6 15 -3 13 9 11 12 -6 12 -8 0 -12 -4 -9 -9z"/>
<path d="M4039 3183 c-13 -16 -12 -17 4 -4 9 7 17 15 17 17 0 8 -8 3 -21 -13z"/>
<path d="M7090 1050 c0 -5 5 -10 11 -10 5 0 7 5 4 10 -3 6 -8 10 -11 10 -2 0
-4 -4 -4 -10z"/>
<path d="M3150 1030 c0 -5 5 -10 11 -10 5 0 7 5 4 10 -3 6 -8 10 -11 10 -2 0
-4 -4 -4 -10z"/>
<path d="M7970 1009 c0 -5 5 -7 10 -4 6 3 10 8 10 11 0 2 -4 4 -10 4 -5 0 -10
-5 -10 -11z"/>
<path d="M3076 983 c-6 -14 -5 -15 5 -6 7 7 10 15 7 18 -3 3 -9 -2 -12 -12z"/>
<path d="M2880 910 c-9 -6 -10 -10 -3 -10 6 0 15 5 18 10 8 12 4 12 -15 0z"/>
<path d="M2920 910 c-9 -6 -10 -10 -3 -10 6 0 15 5 18 10 8 12 4 12 -15 0z"/>
<path d="M2593 895 c0 -8 4 -12 9 -9 5 3 6 10 3 15 -9 13 -12 11 -12 -6z"/>
<path d="M2770 889 c0 -5 5 -7 10 -4 6 3 10 8 10 11 0 2 -4 4 -10 4 -5 0 -10
-5 -10 -11z"/>
<path d="M7995 121 c-3 -5 -2 -12 3 -15 5 -3 9 1 9 9 0 17 -3 19 -12 6z"/>
<path d="M8190 111 c0 -6 4 -13 10 -16 6 -3 7 1 4 9 -7 18 -14 21 -14 7z"/>
<path d="M8050 89 c0 -5 5 -7 10 -4 6 3 10 8 10 11 0 2 -4 4 -10 4 -5 0 -10
-5 -10 -11z"/>
<path d="M8116 72 c-3 -5 1 -9 9 -9 8 0 12 4 9 9 -3 4 -7 8 -9 8 -2 0 -6 -4
-9 -8z"/>
</g>
</svg>
